<svg xmlns="http://www.w3.org/2000/svg" viewBox="0 0 116.06 62.33"><defs><style>.cls-1{fill:#ff9e2b;}</style></defs><g id="Calque_2" data-name="Calque 2"><g id="Layer_1" data-name="Layer 1"><path class="cls-1" d="M85.71,36.09l-6-2.05,36.4-10.15-36.4,3.38,13-7.07L77.46,23,95.35,0,59.57,25,52.9,16.61l-6.12,12.1L34.14,26.86l5.43,7.49L16.81,37.63l14.66,4-9.32,3,5.33,1.13L0,61.51,31.06,50.24l-2.15,4.92,9.13-5-4,12.2L47.67,50.65l5.54,4.71,3.69-6.25L86.12,59.87,75.56,38.24Zm-15.79,9L56.18,40.39,53.31,44.5s-1.84-3.8-2-3.49-7.07,6.05-7.07,6.05l2.49-6.15L35.37,45l11.41-8.58L43.57,32.5l7.49.62,2.15-6,3.38,4.71,13.13-6-7.9,8,8.92,1.75S64,36.81,64.08,37.11,69.92,45.11,69.92,45.11Z"/></g></g></svg>